<svg xmlns="http://www.w3.org/2000/svg" width="888" height="200" viewBox="0 0 888 200">
  <path fill="none" d="M258.16 159.558h419.946V194H258.16z"/>
  <path fill="#86C1D2" d="M257.404 187.503c-.36.27-.81.359-1.215.359-.72 0-1.44-.359-1.89-1.035l-14.714-21.148v19.979c0 1.215-.99 2.205-2.205 2.205s-2.25-.99-2.25-2.205v-27.044c-.09-.854.27-1.71 1.035-2.204a2.214 2.214 0 0 1 3.105.675l14.669 21.779V158.3c0-1.26 1.035-2.25 2.25-2.25s2.205.99 2.205 2.25v26.999a2.192 2.192 0 0 1-.99 2.204zm3.511-11.025c0-6.254 5.085-11.294 11.294-11.294 6.255 0 11.294 5.04 11.294 11.294 0 6.21-5.04 11.295-11.294 11.295-6.209-.001-11.294-5.085-11.294-11.295zm4.455 0c0 3.735 3.06 6.84 6.839 6.84s6.84-3.104 6.84-6.84c0-3.779-3.06-6.839-6.84-6.839s-6.839 3.059-6.839 6.839zm34.333-9.044c0 1.215-.99 2.25-2.25 2.25a6.836 6.836 0 0 0-6.839 6.839v9.045c0 1.215-.99 2.25-2.205 2.25a2.257 2.257 0 0 1-2.25-2.25v-9.045c0-6.254 5.085-11.294 11.294-11.294 1.26 0 2.25.99 2.25 2.205zm18.044 0c0 1.215-.99 2.25-2.25 2.25h-3.195v15.884c0 1.215-.99 2.25-2.25 2.25-1.215 0-2.205-1.035-2.205-2.25v-15.884h-3.24c-1.215 0-2.205-1.035-2.205-2.25s.99-2.205 2.205-2.205h3.24v-9c0-1.215.99-2.205 2.205-2.205 1.26 0 2.25.99 2.25 2.205v9h3.195c1.26 0 2.25.99 2.25 2.205zm22.589 7.649v10.439c0 1.26-1.035 2.25-2.25 2.25s-2.205-.99-2.205-2.25v-10.439c0-3.015-2.475-5.444-5.49-5.444a5.435 5.435 0 0 0-5.445 5.444v10.439c0 1.26-.99 2.25-2.25 2.25-1.215 0-2.205-.99-2.205-2.25v-29.294c0-1.215.99-2.205 2.205-2.205 1.26 0 2.25.99 2.25 2.205v10.575a9.809 9.809 0 0 1 5.445-1.62c5.49.001 9.945 4.456 9.945 9.9zm25.245 1.395c0 1.215-.99 2.205-2.25 2.205h-15.524c.945 2.7 3.465 4.635 6.479 4.635 1.035 0 2.88-.09 5.04-1.484 1.035-.675 2.43-.045 2.97 1.034.54 1.125-.045 2.295-1.08 2.971-2.97 1.979-5.265 1.935-6.93 1.935-6.255 0-11.294-5.085-11.294-11.295 0-6.254 5.04-11.294 11.294-11.294 5.444-.001 11.295 3.959 11.295 11.293zm-17.775-2.25h13.004c-.945-3.149-3.825-4.589-6.525-4.589-3.014 0-5.534 1.934-6.479 4.589zm52.152.225c.045.09.045.135.045.225v10.935c0 1.26-1.034 2.25-2.249 2.25-1.216 0-2.205-.99-2.205-2.25v-11.34c0-2.521-2.07-4.545-4.59-4.545-2.521 0-4.59 2.024-4.59 4.545v11.339c0 1.26-.99 2.25-2.205 2.25s-2.25-.99-2.25-2.25v-11.339a4.531 4.531 0 0 0-4.545-4.545c-2.52 0-4.59 2.024-4.59 4.545v11.339c0 1.26-.99 2.25-2.205 2.25-1.26 0-2.25-.99-2.25-2.25v-11.339c0-4.95 4.05-9 9.045-9 2.7 0 5.13 1.17 6.795 3.104a8.903 8.903 0 0 1 6.795-3.104c4.994 0 9.044 4.05 9.044 9 0 .09 0 .135-.045.18z"/>
  <path fill="#333334" d="M438.121 187.728c-1.035.225-2.431-.271-2.971-1.62l-1.619-4.59h-10.979l-1.891 4.59c-.225 1.035-1.08 1.62-2.159 1.62h-.495c-1.351-.585-1.891-1.89-1.62-2.97l9.63-26.819c.27-.854 1.079-1.62 2.204-1.62 1.08 0 1.846.766 2.115 1.62l9.135 26.819c.494 1.08-.001 2.385-1.35 2.97zm-5.941-10.755l-3.96-11.52-4.05 11.52h8.01zm21.105-9.539c0 1.215-.988 2.25-2.248 2.25h-3.195v15.884c0 1.215-.99 2.25-2.25 2.25-1.215 0-2.206-1.035-2.206-2.25v-15.884h-3.239c-1.216 0-2.205-1.035-2.205-2.25s.989-2.205 2.205-2.205h3.239v-9c0-1.215.99-2.205 2.206-2.205 1.26 0 2.25.99 2.25 2.205v9h3.195c1.26 0 2.248.99 2.248 2.205zm-.09 9.044c0-6.254 5.086-11.294 11.295-11.294 6.256 0 11.295 5.04 11.295 11.294 0 6.21-5.039 11.295-11.295 11.295-6.209-.001-11.295-5.085-11.295-11.295zm4.455 0c0 3.735 3.061 6.84 6.84 6.84s6.84-3.104 6.84-6.84c0-3.779-3.061-6.839-6.84-6.839s-6.84 3.059-6.84 6.839zm52.334-2.025c.045.09.045.135.045.225v10.935c0 1.26-1.035 2.25-2.25 2.25s-2.205-.99-2.205-2.25v-11.34c0-2.521-2.07-4.545-4.59-4.545s-4.59 2.024-4.59 4.545v11.339c0 1.26-.99 2.25-2.205 2.25s-2.25-.99-2.25-2.25v-11.339a4.53 4.53 0 0 0-4.545-4.545c-2.52 0-4.59 2.024-4.59 4.545v11.339c0 1.26-.99 2.25-2.205 2.25-1.26 0-2.25-.99-2.25-2.25v-11.339c0-4.95 4.051-9 9.045-9a8.903 8.903 0 0 1 6.795 3.104 8.906 8.906 0 0 1 6.795-3.104c4.994 0 9.045 4.05 9.045 9 0 .09 0 .135-.045.18zm37.756 4.275c0 1.215-.631 4.05-2.791 6.165-1.215 1.215-3.51 2.7-7.109 2.7-.09 0-.18 0-.27-.045-2.926-.045-5.4-.811-7.381-2.205-1.664-1.215-2.52-2.521-2.924-3.24a2.38 2.38 0 0 1-.359-1.215c0-1.26 1.035-2.25 2.25-2.25.898 0 1.709.54 2.023 1.396.18.27.676 1.034 1.666 1.755 1.26.854 2.879 1.305 4.814 1.35 5.355.09 5.625-4.365 5.625-4.41 0-1.035-.721-2.295-1.756-3.104-1.17-.945-2.789-1.125-4.59-1.35-2.475-.315-5.264-.631-7.559-2.971-2.16-2.249-2.971-5.31-2.025-8.324.945-3.15 3.645-5.625 6.975-6.255.811-.225 1.711-.27 2.699-.27 3.105.045 5.715.899 7.74 2.52 1.666 1.26 2.43 2.7 2.699 3.285.182.314.271.63.271 1.035 0 1.215-.99 2.204-2.205 2.204-.9 0-1.711-.495-2.07-1.35h-.045c0-.045-.314-.81-1.305-1.62-.9-.72-2.564-1.575-5.176-1.62-.629-.045-1.215 0-1.709.136-1.711.359-3.15 1.619-3.645 3.284-.271.811-.451 2.385.99 3.87 1.125 1.125 2.564 1.395 4.904 1.665 2.16.27 4.635.54 6.795 2.25 2.119 1.664 3.468 4.274 3.468 6.614zm21.285-11.16v22.184c0 5.085-4.186 9.271-9.314 9.271-3.555 0-6.75-2.025-8.324-5.221-.541-1.079-.09-2.43 1.035-2.97 1.08-.54 2.43-.045 2.924 1.035.855 1.665 2.52 2.7 4.365 2.7 2.699 0 4.859-2.16 4.859-4.815v-3.239c-1.35.81-2.924 1.26-4.635 1.26-4.949 0-9-4.005-9.045-8.955v-11.249c0-1.215.99-2.205 2.205-2.205s2.205.99 2.205 2.205v11.159c0 2.565 2.115 4.635 4.635 4.635a4.628 4.628 0 0 0 4.635-4.635v-11.159c0-1.215.99-2.205 2.205-2.205 1.26-.001 2.25.99 2.25 2.204zm25.245 8.91v9.045c0 1.26-.99 2.25-2.25 2.25-1.215 0-2.205-.99-2.205-2.25v-9.045c0-3.779-3.061-6.839-6.84-6.839s-6.84 3.06-6.84 6.839v9.045c0 1.26-.99 2.25-2.25 2.25-1.215 0-2.205-.99-2.205-2.25v-9.045c0-6.254 5.086-11.294 11.295-11.294s11.295 5.04 11.295 11.294zm15.164-9.044c0 1.215-.988 2.25-2.248 2.25h-3.195v15.884c0 1.215-.99 2.25-2.25 2.25-1.215 0-2.205-1.035-2.205-2.25v-15.884h-3.24c-1.215 0-2.205-1.035-2.205-2.25s.99-2.205 2.205-2.205h3.24v-9c0-1.215.99-2.205 2.205-2.205 1.26 0 2.25.99 2.25 2.205v9h3.195c1.259 0 2.248.99 2.248 2.205zm22.23 9.224v8.819c0 1.305-.945 2.25-2.25 2.25-.9 0-2.16-.945-2.16-2.25-1.934 1.62-4.094 2.25-6.658 2.25-6.346 0-11.385-4.725-11.385-11.069s5.039-11.385 11.385-11.385c6.343 0 11.068 5.04 11.068 11.385zm-4.41 0c0-3.78-2.879-6.975-6.658-6.975-3.781 0-6.975 3.194-6.975 6.975 0 3.779 3.193 6.659 6.975 6.659 3.779 0 6.658-2.879 6.658-6.659zm25.154 7.515c.766.989.586 2.385-.404 3.104-.404.315-.855.495-1.35.495-.676 0-1.305-.315-1.756-.854l-5.264-6.795-5.266 6.795c-.449.539-1.08.854-1.754.854-.496 0-.945-.18-1.35-.495-.99-.72-1.17-2.115-.406-3.104l5.939-7.695-5.939-7.694a2.232 2.232 0 0 1 .406-3.149c.943-.766 2.34-.585 3.104.404l5.266 6.795 5.264-6.795c.766-.989 2.16-1.17 3.105-.404a2.23 2.23 0 0 1 .404 3.149l-5.939 7.694 5.94 7.695z"/>
  <g fill-rule="evenodd" clip-rule="evenodd" fill="#333334">
    <path d="M443.852 135.978c-18.951-.516-34.582-6.99-47.737-19.621-3.937-3.777-4.499-7.246-.978-11.549 3.068-3.75 5.746-7.814 8.706-11.656 3.61-4.686 5.591-4.625 9.361.117.629.791 1.202 1.627 1.826 2.42 3.673 4.672 5.838 4.758 9.395.109 4.053-5.295 7.967-10.695 11.901-16.08 2.88-3.941 5.717-4.066 8.665-.084 5.651 7.633 11.516 15.115 16.928 22.914 3.691 5.32 8.252 7.99 14.791 7.525 4.023-.283 8.084-.055 12.127-.033 1.631.008 3.439-.02 4.275 1.652 1.049 2.09-.633 3.426-1.895 4.656-11.4 11.117-24.971 17.654-40.883 19.16-2.41.229-4.834.352-6.482.47z"/>
    <path d="M443.629.978c41.613-.08 73.427 37.316 66.669 78.486-.402 2.449 0 5.941-2.939 6.826-3.256.979-4.18-2.557-5.645-4.541-4.691-6.344-9.164-12.852-13.842-19.205-4.201-5.701-8.359-5.715-12.588-.129-2.318 3.064-4.416 6.295-6.777 9.328-4.15 5.334-8.113 5.352-12.154-.189-8.227-11.277-16.258-22.697-24.381-34.051-5.512-7.707-9.076-7.676-14.7.178-10.486 14.641-20.912 29.322-31.45 43.924-1.445 2.004-2.338 5.486-5.583 4.713-3.137-.748-2.66-4.275-3.068-6.68-6.964-41.043 24.8-78.578 66.458-78.66z"/>
  </g>
</svg>
